PathFileType	4	(X/Y/Z)	C:\Users\Basilio\Documents\Thesis Gigler\squatting_fais\c3dfiles\038\SLS_front_pre5\markers_experimental.trc
DataRate	CameraRate	NumFrames	NumMarkers	Units	OrigDataRate	OrigDataStartFrame	OrigNumFrames
200.000000	200.000000	4	61	mm	200.000000	766	1532
Frame#	Time	FHD			LBHD			RBHD			C7			T10			CLAV			LSHO			LUUPA			LMUPA			LDUPA			LLEP			LMEP			LRAD			LUL			LRFIN			RSHO			RUPA1			RMUPA			RDUPA			RLEP			RMEP			RRAD			RUL			RUFIN			LASI			RASI			USACR			LSACR			RSACR			LTHI1			LTHI2			LTHI3			LTHI4			LLFC			LMFC			LTIB1			LTIB2			LTIB3			LTIB4			LLMAL			LMMAL			LHEE			LMT1			LMT2			LMT5			RTHI			RTHI2			RTHI3			RTHI4			RLFC			RMFC			RTIB1			RTIB2			RTIB3			RTIB4			RLMAL			RMMAL			RHEE			RMT1			RMT2			RMT5			
		X1	Y1	Z1	X2	Y2	Z2	X3	Y3	Z3	X4	Y4	Z4	X5	Y5	Z5	X6	Y6	Z6	X7	Y7	Z7	X8	Y8	Z8	X9	Y9	Z9	X10	Y10	Z10	X11	Y11	Z11	X12	Y12	Z12	X13	Y13	Z13	X14	Y14	Z14	X15	Y15	Z15	X16	Y16	Z16	X17	Y17	Z17	X18	Y18	Z18	X19	Y19	Z19	X20	Y20	Z20	X21	Y21	Z21	X22	Y22	Z22	X23	Y23	Z23	X24	Y24	Z24	X25	Y25	Z25	X26	Y26	Z26	X27	Y27	Z27	X28	Y28	Z28	X29	Y29	Z29	X30	Y30	Z30	X31	Y31	Z31	X32	Y32	Z32	X33	Y33	Z33	X34	Y34	Z34	X35	Y35	Z35	X36	Y36	Z36	X37	Y37	Z37	X38	Y38	Z38	X39	Y39	Z39	X40	Y40	Z40	X41	Y41	Z41	X42	Y42	Z42	X43	Y43	Z43	X44	Y44	Z44	X45	Y45	Z45	X46	Y46	Z46	X47	Y47	Z47	X48	Y48	Z48	X49	Y49	Z49	X50	Y50	Z50	X51	Y51	Z51	X52	Y52	Z52	X53	Y53	Z53	X54	Y54	Z54	X55	Y55	Z55	X56	Y56	Z56	X57	Y57	Z57	X58	Y58	Z58	X59	Y59	Z59	X60	Y60	Z60	X61	Y61	Z61	

767	3.83	-219.7578277587891	1523.947387695313	-1111.793212890625	-375.4507141113282	1472.364013671875	-1173.160888671875	-367.9420471191407	1460.156860351563	-1028.041748046875	-431.817352294922	1310.379150390625	-1099.869140625	-478.1810913085939	1031.861694335938	-1070.788696289063	-286.6336059570313	1276.113525390625	-1104.930297851563	-341.6130065917969	1317.098754882813	-1246.859008789063	-175.3876647949219	1264.2236328125	-1374.35888671875	-148.895492553711	1298.128173828125	-1345.957397460938	-106.4898834228516	1273.597290039063	-1380.005615234375	-44.48664474487305	1278.0966796875	-1379.527709960938	-32.63916778564454	1204.26806640625	-1358.117553710938	nan	nan	nan	248.4357299804688	1298.774780273438	-1325.463256835938	303.0051574707032	1309.761840820313	-1229.374755859375	-331.5680236816407	1322.6220703125	-966.8193359375002	-181.6977996826172	1302.117797851563	-839.3606567382815	-144.7928771972657	1309.517822265625	-870.5686035156252	-114.8839874267578	1298.733154296875	-818.8506469726565	-42.17662429809571	1296.57568359375	-804.8516235351565	-36.02517318725587	1216.819946289063	-816.0113525390627	235.5315399169922	1286.36279296875	-882.7341308593752	245.1141052246094	1307.078125	-815.8821411132815	315.4874877929688	1320.916748046875	-889.6818847656252	-300.3647155761719	846.8967895507815	-1148.462890625	-348.3463745117188	874.0859375000002	-903.6115722656252	-490.5989990234376	864.7827148437502	-1050.589599609375	-491.9819335937501	830.8771972656252	-1077.247802734375	-500.8263244628907	833.6185302734377	-1021.394897460938	-164.9266967773438	578.2937622070314	-1200.341796875	-92.53456878662111	532.1857299804689	-1195.454711914063	-59.16276931762697	561.5590820312501	-1171.128173828125	-87.6808319091797	473.4724426269532	-1178.826416015625	-64.53369903564455	426.1966247558595	-1163.635986328125	-57.75203704833986	430.9093627929689	-1044.709838867188	-120.4361343383789	266.5887451171876	-1065.265258789063	-181.3383941650391	246.7861938476563	-1128.734252929688	-153.5194702148438	227.4715423583985	-1094.362426757813	-211.2829895019532	177.6350708007813	-1056.6923828125	-356.5545654296876	111.8214950561524	-1075.435668945313	-315.3160095214844	124.5047683715821	-1000.347961425781	-416.8516845703126	94.52294921875001	-1016.271118164063	-214.9861297607422	44.01670837402344	-1016.456176757813	-208.5861053466797	44.85142898559571	-1067.388671875	-256.4831542968751	34.15751647949219	-1111.728637695313	-220.288558959961	664.3436889648439	-834.4340820312502	-153.6984100341797	663.3580322265626	-832.3674316406252	-135.8081207275391	690.3881225585939	-837.6155395507815	-105.5376892089844	592.1625366210939	-846.065124511719	14.41342830657959	528.1042480468751	-853.0424804687502	19.72705841064453	528.2180175781251	-975.2122802734377	182.2614440917969	454.4255981445314	-872.398376464844	195.4625244140626	343.8516235351563	-836.7883911132815	222.618881225586	381.8911743164063	-845.7960205078127	270.3726806640626	360.1407470703126	-872.2859497070315	326.9411315917969	232.4274902343751	-839.5180664062502	343.6923217773438	264.0833129882813	-918.8425292968752	340.2836608886719	157.9078674316407	-904.3328857421877	458.3279113769532	339.4025878906251	-880.443298339844	447.1897888183595	340.3706665039063	-833.519470214844	438.3101501464845	293.0862426757813	-791.4009399414065	
768	3.835	-219.2529754638672	1522.970825195313	-1111.779418945313	-374.8075866699219	1472.006225585938	-1173.250244140625	-367.1631164550782	1459.614868164063	-1028.372680664063	-431.3224182128907	1309.797241210938	-1099.84814453125	-478.0781555175782	1031.343017578125	-1070.8056640625	-285.8299865722657	1275.259155273438	-1105.041381835938	-340.9322814941407	1316.511352539063	-1246.892578125	-174.752670288086	1263.656860351563	-1374.322143554688	-148.4307556152344	1297.426879882813	-1345.92431640625	-105.9984893798828	1272.840087890625	-1380.023315429688	-43.99993515014649	1277.432373046875	-1379.470581054688	-31.96376037597657	1203.538940429688	-1358.118408203125	nan	nan	nan	248.9679870605469	1298.106323242188	-1325.511474609375	303.4904479980469	1309.20166015625	-1229.412719726563	-330.9785766601563	1321.86083984375	-966.923278808594	-181.2708740234375	1301.461303710938	-839.5913085937502	-144.1542358398438	1308.885864257813	-870.862976074219	-114.3167419433594	1298.196166992188	-819.068786621094	-41.57453536987305	1295.871826171875	-805.1026611328127	-35.50709915161134	1216.559204101563	-815.9980468750002	236.1365356445313	1286.002075195313	-883.6435546875002	245.6752166748047	1306.832275390625	-816.1311645507815	315.9789123535157	1320.383422851563	-890.0675048828127	-300.3975219726563	846.1917724609377	-1148.50048828125	-348.5310668945313	873.4351806640627	-903.4398193359377	-490.7821350097657	864.3403930664065	-1050.543701171875	-491.9037475585939	829.976989746094	-1077.2177734375	-501.0348510742189	833.1124267578127	-1021.29638671875	-164.8062133789063	577.7614135742189	-1200.163208007813	-92.1886672973633	531.9014892578126	-1195.260864257813	-58.8932571411133	561.1316528320314	-1170.965698242188	-87.34799957275392	473.1970825195314	-1178.618286132813	-64.09931945800783	425.8898925781251	-1163.48779296875	-57.30026245117189	430.6726379394532	-1044.498291015625	-120.2142562866211	266.3488769531251	-1065.130981445313	-181.3051910400391	246.6539001464844	-1128.674194335938	-153.3603210449219	227.3677062988282	-1094.116455078125	-211.1327514648438	177.4253387451172	-1056.510375976563	-356.4559936523438	111.82861328125	-1075.404663085938	-315.5790710449219	124.2657165527344	-1000.430114746094	-416.8428649902345	94.49317932128908	-1016.266235351563	-214.9968261718751	43.9943962097168	-1016.492431640625	-208.5848541259766	44.90113830566407	-1067.330444335938	-256.3831481933594	34.06584548950196	-1111.744384765625	-220.2201538085938	663.8937988281251	-834.4539184570315	-153.5906829833985	662.8266601562501	-832.3087158203127	-135.8325500488282	690.0404663085939	-837.8295898437502	-105.3688049316407	591.7620849609376	-846.1350097656252	14.56729602813721	527.8460083007814	-853.2003173828127	19.82174110412598	527.9164428710939	-975.325134277344	182.4485931396485	454.3166503906251	-872.6091918945315	195.7894287109376	343.7272644042969	-836.9744873046877	222.5742950439454	381.6502380371094	-846.2145996093752	270.6590881347657	360.0488891601563	-872.501159667969	327.4335937500001	232.3882446289063	-839.9729003906252	344.0959167480469	263.9990539550782	-919.109558105469	342.6175842285157	156.7784881591797	-904.8167114257815	458.6815490722657	339.5168457031251	-880.7156372070315	447.3372192382814	340.4790954589844	-833.8883056640627	438.7440795898439	293.0774230957032	-791.6262207031252	
769	3.84	-218.8051147460938	1522.218383789063	-1111.626342773438	-374.1925354003907	1471.315673828125	-1173.279296875	-366.6922302246094	1458.9091796875	-1028.411376953125	-430.8062744140626	1308.979614257813	-1099.893920898438	-478.0178833007814	1030.71923828125	-1070.819458007813	-285.3559570312501	1274.447875976563	-1105.1318359375	-340.5017395019532	1315.828491210938	-1246.910888671875	-174.1629333496094	1262.96630859375	-1374.312622070313	-148.0177154541016	1296.793579101563	-1345.777465820313	-105.3680496215821	1272.222412109375	-1379.9775390625	-42.86705780029298	1276.526977539063	-1379.432861328125	-31.59271240234376	1203.013916015625	-1358.043212890625	nan	nan	nan	249.4958953857422	1297.547973632813	-1325.563232421875	304.2301940917969	1308.567138671875	-1229.469848632813	-330.6911926269532	1321.2958984375	-967.0538330078127	-180.8162689208985	1300.69580078125	-839.831970214844	-143.6976470947266	1308.2451171875	-870.9813232421877	-114.1178817749024	1297.718017578125	-819.1791992187502	-40.96869659423829	1295.283081054688	-805.327331542969	-34.8120231628418	1215.843017578125	-816.265563964844	236.5613250732422	1285.53955078125	-883.924499511719	246.0159912109376	1306.195434570313	-816.5991821289065	316.5309753417969	1320.212524414063	-890.534606933594	-300.6959228515626	845.550476074219	-1148.430053710938	-348.6486816406251	872.8428955078127	-903.4211425781252	-490.7946777343751	863.605407714844	-1050.387939453125	-491.9340209960939	829.2241210937502	-1077.195068359375	-501.1596984863282	832.6546630859377	-1021.254821777344	-164.9683837890625	576.9320068359376	-1200.016479492188	-91.94205474853517	531.4753417968751	-1195.02490234375	-58.71082687377931	560.8629760742189	-1170.731323242188	-87.14558410644533	472.9102783203126	-1178.420654296875	-64.15993499755861	425.2772216796876	-1163.333740234375	-56.96986389160158	430.3526611328126	-1044.362548828125	-120.0323715209961	266.1932678222657	-1065.006958007813	-181.0715484619141	246.491195678711	-1128.563598632813	-153.2884216308594	227.3014831542969	-1093.90966796875	-211.0693359375001	177.3180847167969	-1056.494384765625	-356.4062194824219	111.889404296875	-1075.379760742188	-315.2739562988282	124.4809875488282	-1000.27685546875	-416.8554077148439	94.5150604248047	-1016.268859863281	-214.9675750732422	43.93896102905274	-1016.483459472656	-208.5932159423829	44.8360824584961	-1067.35400390625	-256.4588623046876	34.1370964050293	-1111.741455078125	-220.1264343261719	663.4953002929689	-834.388854980469	-153.5256652832032	662.4332885742189	-832.282165527344	-135.7320098876953	689.6829833984376	-838.0095825195315	-105.2290878295899	591.5255126953126	-846.2226562500002	14.74122142791748	527.6026611328126	-853.2642211914065	19.93070793151856	527.6502075195314	-975.4465942382815	182.7037963867188	454.205535888672	-872.7891235351565	196.1434631347657	343.6463623046876	-837.2979125976565	222.8323974609376	381.5613098144532	-846.4617309570315	270.7945556640626	360.0763244628907	-872.638854980469	327.9773254394532	232.4480133056641	-840.1552734375002	344.5755920410157	264.0962524414063	-919.600769042969	341.9491577148438	157.7982940673828	-905.4548950195315	458.8462219238282	339.9638061523438	-880.9133911132815	447.7375793457032	340.5261535644532	-834.0464477539065	439.1849365234376	293.2624206542969	-792.1304321289065	
770	3.845	-218.3863220214844	1521.875122070313	-1111.70703125	-373.6478271484376	1470.569580078125	-1173.375854492188	-366.2290344238282	1458.14013671875	-1028.467163085938	-430.3704833984376	1308.44580078125	-1100.020874023438	-478.0069274902345	1030.056884765625	-1070.901489257813	-284.8281555175782	1273.6513671875	-1105.119995117188	-339.8310852050782	1314.960205078125	-1246.822143554688	-173.726547241211	1262.369506835938	-1374.331787109375	-147.480209350586	1296.18701171875	-1345.713745117188	-104.8977127075196	1271.616821289063	-1379.902587890625	-42.31132507324219	1275.859985351563	-1379.442504882813	-30.98632240295411	1202.314453125	-1358.119750976563	nan	nan	nan	250.0687103271485	1296.912841796875	-1325.509399414063	304.7048034667969	1307.931640625	-1229.427856445313	-329.9217834472657	1320.591918945313	-967.244812011719	-180.2271728515625	1300.233154296875	-839.8982543945315	-143.2877960205078	1307.514404296875	-871.2276611328127	-113.5691146850586	1296.9853515625	-819.4309692382815	-40.38226699829102	1294.763305664063	-805.568542480469	-34.24422836303712	1215.526489257813	-816.3986816406252	236.9928436279297	1284.80810546875	-883.6771240234377	246.5666809082032	1305.824340820313	-816.9399414062502	317.0522155761719	1319.683837890625	-890.7884521484377	-300.7985839843751	845.0764160156252	-1148.49609375	-348.7153320312501	872.1413574218752	-903.5225219726565	-490.7400207519532	862.768493652344	-1050.4658203125	-491.5255737304689	828.3312988281252	-1076.964477539063	-501.2126770019532	831.9681396484377	-1021.246887207031	-164.739242553711	576.4705810546876	-1199.852661132813	-91.65648651123048	531.1262817382814	-1194.841674804688	-58.54941940307619	560.6005859375001	-1170.501708984375	-86.76953125000001	472.5837707519532	-1178.125244140625	-63.78796386718751	424.9671020507814	-1163.1591796875	-56.73002243041994	430.034637451172	-1044.266845703125	-119.8630828857422	266.0058898925782	-1064.828979492188	-180.9935913085938	246.380844116211	-1128.4462890625	-153.1063995361328	227.2532043457032	-1093.564697265625	-210.9873352050782	177.2725830078125	-1056.40576171875	-356.3879089355469	111.9396896362305	-1075.392944335938	-315.5038452148438	124.21875	-1000.375915527344	-416.8472290039064	94.53185272216798	-1016.273315429688	-214.9651336669922	43.85210418701173	-1016.495910644531	-208.569564819336	45.03804779052735	-1067.224243164063	-256.4000244140626	34.08007431030274	-1111.743408203125	-220.0789947509766	663.1113891601564	-834.3433837890627	-153.891357421875	661.7709960937501	-832.8152465820315	-135.6540832519532	689.3726196289064	-838.1376953125002	-105.0725631713867	591.1631469726564	-846.2459716796877	14.976149559021	527.3504638671876	-853.4000244140627	20.04619407653809	527.3340454101564	-975.5736083984377	182.9839324951172	454.1183166503907	-873.0336914062502	196.4281616210938	343.6491088867188	-837.575378417969	223.1839904785157	381.4961242675782	-846.4416503906252	271.0132141113282	360.1498413085938	-873.116149902344	328.3624572753907	232.4225006103516	-840.3060302734377	344.8970947265626	263.9580383300782	-919.8945922851565	342.7388305664063	157.2345733642578	-905.4185180664065	459.1513977050782	339.6571350097657	-881.3364257812502	448.0013122558595	340.6473693847657	-834.4727783203127	439.5666809082032	293.1583557128907	-792.439880371094	
